<svg xmlns="http://www.w3.org/2000/svg" viewBox="0 0 32 32" fill="none">
  <rect width="32" height="32" rx="8" fill="#4f46e5"/>
  <path d="M9 7C9 5.89543 9.89543 5 11 5H17.5858C18.1163 5 18.625 5.21071 19 5.58579L22.4142 9C22.7893 9.375 23 9.88371 23 10.4142V25C23 26.1046 22.1046 27 21 27H11C9.89543 27 9 26.1046 9 25V7Z" fill="white" fill-opacity="0.2"/>
  <path d="M16 11V18.5C16 20.433 14.433 22 12.5 22C10.567 22 9 20.433 9 18.5V11L16 8.5L23 11V18.5C23 20.433 21.433 22 19.5 22C17.567 22 16 20.433 16 18.5V11Z" stroke="white" stroke-width="2" stroke-linecap="round" stroke-linejoin="round"/>
  <circle cx="16" cy="15" r="1.75" fill="white"/>
</svg>
